<?xml version="1.0" encoding="UTF-8" standalone="no"?>
<!-- Created with Inkscape (http://www.inkscape.org/) -->

<svg
   xmlns:dc="http://purl.org/dc/elements/1.1/"
   xmlns:cc="http://creativecommons.org/ns#"
   xmlns:rdf="http://www.w3.org/1999/02/22-rdf-syntax-ns#"
   xmlns:svg="http://www.w3.org/2000/svg"
   xmlns="http://www.w3.org/2000/svg"
   xmlns:sodipodi="http://sodipodi.sourceforge.net/DTD/sodipodi-0.dtd"
   xmlns:inkscape="http://www.inkscape.org/namespaces/inkscape"
   width="200.8027mm"
   height="47.575218mm"
   viewBox="0 0 200.8027 47.575218"
   version="1.1"
   id="svg8"
   inkscape:version="0.92.2 2405546, 2018-03-11"
   sodipodi:docname="drawing.svg">
  <defs
     id="defs2" />
  <sodipodi:namedview
     id="base"
     pagecolor="#ffffff"
     bordercolor="#666666"
     borderopacity="1.0"
     inkscape:pageopacity="0.0"
     inkscape:pageshadow="2"
     inkscape:zoom="0.49497475"
     inkscape:cx="76.133875"
     inkscape:cy="167.65898"
     inkscape:document-units="mm"
     inkscape:current-layer="layer1"
     showgrid="false"
     inkscape:window-width="1362"
     inkscape:window-height="729"
     inkscape:window-x="0"
     inkscape:window-y="18"
     inkscape:window-maximized="0"
     fit-margin-top="0"
     fit-margin-left="0"
     fit-margin-right="0"
     fit-margin-bottom="0" />
  <metadata
     id="metadata5">
    <rdf:RDF>
      <cc:Work
         rdf:about="">
        <dc:format>image/svg+xml</dc:format>
        <dc:type
           rdf:resource="http://purl.org/dc/dcmitype/StillImage" />
        <dc:title></dc:title>
      </cc:Work>
    </rdf:RDF>
  </metadata>
  <g
     inkscape:label="Layer 1"
     inkscape:groupmode="layer"
     id="layer1"
     transform="translate(-3.7581221,-129.67333)">
    <path
       style="fill:#000000;stroke-width:0.19831005"
       d="m 21.964717,176.98203 c -0.413665,-0.14756 -1.812214,-0.90218 -3.107885,-1.67693 -1.29567,-0.77474 -2.409546,-1.40863 -2.475279,-1.40863 -0.06573,0 -0.675074,-0.34531 -1.354091,-0.76737 -0.679018,-0.42205 -1.859254,-1.12814 -2.622748,-1.56908 -1.77727,-1.02643 -2.4693339,-1.76561 -2.7821469,-2.97153 -0.312192,-1.20353 -0.143104,-2.21412 0.5984149,-3.57654 l 0.561131,-1.03098 h 2.033885 2.033885 l 0.821294,0.94197 c 2.957467,3.39203 6.878491,5.43244 11.54225,6.00632 l 1.918558,0.23608 -0.431233,0.78174 c -0.237179,0.42996 -0.520473,0.93291 -0.629543,1.11768 -0.109071,0.18476 -0.482615,0.82675 -0.8301,1.42664 -1.391645,2.4025 -3.170117,3.24199 -5.276392,2.49063 z m 4.321701,-7.16236 c -5.388963,-0.89486 -9.602,-3.92945 -12.112846,-8.72471 -2.139177,-4.08544 -2.431632,-9.09777 -0.786201,-13.47457 1.675274,-4.45618 5.605484,-8.30692 10.023552,-9.82088 4.31546,-1.47879 8.830356,-1.18936 12.845775,0.82351 2.27233,1.13908 4.4072,2.84773 4.4072,3.52732 0,0.406 -0.814835,1.33014 -3.819329,4.33167 -2.100631,2.09856 -3.930813,3.81557 -4.067074,3.81557 -0.136259,0 -0.610519,-0.2628 -1.053913,-0.58399 -0.443393,-0.32119 -1.294284,-0.69322 -1.890872,-0.82673 -1.903616,-0.42601 -3.817719,0.45036 -4.994364,2.28667 -0.440539,0.68752 -0.519645,1.036 -0.524314,2.30971 -0.0058,1.58856 0.177472,2.06024 1.254395,3.228 0.870643,0.94407 1.945374,1.37875 3.408942,1.37875 1.288113,0 1.782922,-0.18954 3.406566,-1.30492 0.303133,-0.20824 0.84321,0.25818 4.313244,3.72496 2.181694,2.17965 3.966719,4.11105 3.966719,4.292 0,0.18095 -0.497035,0.78326 -1.104522,1.33847 -2.075559,1.89694 -5.091478,3.25835 -8.216051,3.70878 -2.240228,0.32295 -2.959082,0.31874 -5.056907,-0.0296 z m 26.030851,-4.84128 c -4.371028,-0.79361 -8.052051,-4.18517 -9.173734,-8.45233 -0.409713,-1.55865 -0.406661,-4.66039 0.0062,-6.26129 0.671109,-2.60253 2.362993,-4.92567 4.794578,-6.58347 1.992193,-1.35824 3.296429,-1.76702 5.962553,-1.86882 1.999142,-0.0763 2.413757,-0.0302 3.903446,0.43425 1.965001,0.61266 4.270434,2.07107 5.452947,3.44954 1.037055,1.2089 2.074058,3.19435 2.470008,4.72908 0.398099,1.54309 0.404348,4.40115 0.01291,5.90399 -1.001369,3.84452 -4.064117,7.09145 -7.776799,8.24447 -1.43556,0.44583 -4.296825,0.65064 -5.652066,0.40458 z m 4.556889,-5.75376 c 2.010079,-0.86471 3.228367,-2.80609 3.381302,-5.38819 0.22462,-3.79249 -1.932429,-6.4452 -5.42306,-6.66922 -2.008025,-0.12886 -3.247018,0.31372 -4.563398,1.6301 -1.309805,1.3098 -1.775506,2.57624 -1.754918,4.77237 0.01614,1.72116 0.397404,2.87013 1.379808,4.15813 1.478864,1.93889 4.464422,2.5791 6.980266,1.49681 z m 47.751822,5.73888 c -2.81658,-0.4421 -4.989792,-1.52404 -6.954482,-3.46229 -1.61848,-1.59671 -2.51492,-3.21479 -2.96594,-5.3535 -1.136,-5.38682 1.32125,-10.63973 6.063272,-12.96158 2.27707,-1.11493 3.60341,-1.4159 6.23973,-1.4159 2.523,0 4.6495,0.45007 6.30118,1.33361 1.06374,0.56904 3.90184,3.16587 3.90184,3.57015 0,0.2285 -3.68243,2.39664 -4.38064,2.57923 -0.22893,0.0599 -0.67606,-0.17074 -1.19901,-0.61837 -1.2239,-1.04761 -2.68489,-1.53008 -4.63332,-1.53008 -2.8828,0 -5.05711,1.2436 -6.17726,3.53311 -0.74268,1.51799 -0.78906,3.99739 -0.10305,5.50983 0.5656,1.247 1.63036,2.36019 2.90904,3.04136 0.90851,0.48399 1.18254,0.52822 3.27212,0.52822 2.10452,0 2.36037,-0.0421 3.31437,-0.54498 0.56859,-0.29974 1.35337,-0.82557 1.74395,-1.1685 l 0.71014,-0.62351 2.17268,1.45943 c 1.19497,0.80269 2.17267,1.53858 2.17267,1.63533 0,0.0967 -0.51595,0.68076 -1.14655,1.2978 -1.31088,1.2827 -3.34661,2.42548 -5.14919,2.89057 -1.54409,0.39838 -4.52856,0.5454 -6.09155,0.30007 z m 24.95792,-0.0878 c -4.85167,-1.0554 -8.40612,-5.87708 -8.40612,-11.40306 0,-4.29882 1.98986,-8.25223 5.19685,-10.32501 1.66023,-1.07306 3.23338,-1.44152 5.73722,-1.34378 2.33303,0.0911 3.58254,0.53991 5.46977,1.96478 l 1.04745,0.79083 v -1.19628 -1.19629 h 2.77634 2.77634 v 11.20452 11.20452 h -2.76645 -2.76644 l -0.0595,-1.10972 -0.0595,-1.10971 -0.79324,0.63396 c -1.16095,0.92783 -2.54879,1.57884 -4.03936,1.89478 -1.59642,0.33838 -2.52389,0.33623 -4.11341,-0.01 z m 5.3301,-5.37157 c 1.33999,-0.45658 2.55672,-1.62257 3.2317,-3.09694 0.49561,-1.08256 0.57296,-1.49129 0.5745,-3.03578 0.002,-1.5093 -0.0779,-1.95579 -0.51463,-2.89264 -1.09139,-2.34133 -2.83436,-3.44299 -5.42665,-3.42998 -1.3131,0.007 -1.76206,0.0979 -2.60537,0.52976 -2.06907,1.05961 -3.24478,3.1605 -3.24478,5.79817 0,2.89573 1.53344,5.3065 3.91622,6.15683 1.0158,0.3625 2.96004,0.34845 4.06901,-0.0294 z m 35.52177,5.37157 c -3.93416,-0.85581 -7.11064,-4.22199 -8.08588,-8.56879 -1.15365,-5.14193 0.85394,-10.5593 4.87661,-13.15928 1.66023,-1.07306 3.23338,-1.44152 5.73723,-1.34378 2.28952,0.0894 3.50632,0.51361 5.34551,1.8637 l 0.96686,0.70974 0.0528,-5.31929 0.0528,-5.31928 2.82592,-0.055 2.82592,-0.055 v 15.47908 15.47907 l -2.82592,-0.055 -2.82592,-0.055 -0.0604,-0.94197 c -0.0634,-0.98822 -0.2194,-1.14363 -0.63964,-0.63728 -0.50145,0.60422 -2.76019,1.69707 -4.08976,1.97878 -1.63911,0.34728 -2.55754,0.34715 -4.15617,-6e-4 z m 5.31799,-5.36744 c 1.33044,-0.45333 2.42215,-1.49141 3.1735,-3.01762 0.59321,-1.20498 0.65255,-1.4895 0.64971,-3.11506 -0.003,-1.50738 -0.0844,-1.96333 -0.51953,-2.89681 -1.08888,-2.33596 -2.82833,-3.43718 -5.42665,-3.43556 -1.32962,8.3e-4 -1.75144,0.0865 -2.60537,0.52906 -2.07221,1.07398 -3.24477,3.16962 -3.24477,5.79914 0,2.99391 1.66706,5.50049 4.16322,6.25979 0.86188,0.26217 2.86981,0.19738 3.80989,-0.12294 z m 19.29452,5.52417 c -2.0499,-0.27223 -4.8329,-1.80425 -5.83565,-3.21248 l -0.44011,-0.61808 1.72959,-1.88065 1.7296,-1.88065 0.84322,0.77725 c 2.17085,2.00102 4.89302,2.33131 5.9477,0.72167 0.28753,-0.43882 0.29997,-0.60163 0.0855,-1.11935 -0.31744,-0.76637 -1.04942,-1.31447 -3.16748,-2.37176 -4.27186,-2.13244 -6.03343,-4.07176 -6.29236,-6.92733 -0.23074,-2.54461 1.23139,-4.90987 3.75568,-6.0755 1.15783,-0.53464 1.41903,-0.57612 3.62739,-0.57612 2.2672,0 2.44323,0.0301 3.72303,0.6363 0.84338,0.39948 1.75889,1.05186 2.4599,1.75286 l 1.11656,1.11657 -1.80063,1.80063 -1.80064,1.80063 -0.71433,-0.62721 c -1.68123,-1.47613 -3.63913,-1.87637 -4.57938,-0.93611 -0.26772,0.26771 -0.48677,0.56802 -0.48677,0.66734 0,0.48947 0.9949,1.32225 2.45023,2.05096 4.13252,2.06921 5.74543,3.31016 6.60479,5.08154 0.4736,0.97624 0.55063,1.38023 0.55636,2.91791 0.006,1.55668 -0.0636,1.92779 -0.54276,2.90356 -1.44607,2.94468 -4.99373,4.52599 -8.96946,3.99802 z M 70.501399,164.32801 c -0.05218,-0.13634 -0.07169,-5.15606 -0.04335,-11.15494 l 0.05151,-10.90705 2.815862,-0.055 2.81586,-0.055 0.05964,1.09774 0.05963,1.09775 0.933338,-0.66479 c 0.513336,-0.36563 1.494971,-0.92412 2.181411,-1.24109 1.138335,-0.52564 1.439874,-0.57631 3.429483,-0.57631 2.012355,0 2.273426,0.0452 3.36874,0.58295 1.59992,0.78553 2.902775,2.12536 3.494125,3.59328 0.4719,1.17142 0.47493,1.22765 0.53205,9.8542 l 0.0575,8.67607 h -2.767039 -2.76704 l -0.08553,-7.08959 c -0.05921,-4.9075 -0.162043,-7.33373 -0.334109,-7.88282 -0.580553,-1.85264 -1.883059,-2.7865 -3.674198,-2.63428 -1.989291,0.16905 -3.160931,1.1806 -3.969991,3.42752 -0.308465,0.85667 -0.369538,1.88852 -0.448968,7.58536 l -0.09193,6.59381 h -2.761031 c -2.026023,0 -2.786288,-0.066 -2.855903,-0.24789 z m 77.892791,-10.90705 0.0512,-11.15494 2.4293,-0.0557 2.4293,-0.0557 v 1.22448 1.22448 l 0.68689,-0.89959 c 0.93801,-1.22848 2.37821,-1.93379 3.94868,-1.93379 1.46416,0 2.54461,0.35176 2.40734,0.78374 -0.0536,0.16883 -0.4379,1.24398 -0.85389,2.38922 -0.63497,1.74812 -0.81832,2.07298 -1.14254,2.02443 -2.06496,-0.3092 -1.97538,-0.32286 -2.71193,0.41369 -1.35478,1.35478 -1.4139,1.74655 -1.4951,9.90668 l -0.0725,7.2879 h -2.86399 -2.86399 z M 5.9956991,162.67278 c -0.767193,-0.3823 -1.173093,-0.75264 -1.57584,-1.43774 l -0.542477,-0.92281 -0.05963,-6.62083 -0.05963,-6.62084 0.525356,-1.07379 c 0.352001,-0.71946 0.791989,-1.25041 1.333386,-1.60903 0.797885,-0.52852 0.856147,-0.53601 4.6407539,-0.5966 2.107998,-0.0337 3.832724,0.0138 3.832724,0.10564 0,0.0919 -0.315006,0.76024 -0.700012,1.48529 -0.937573,1.76567 -1.448649,3.28439 -1.787621,5.31213 -0.356669,2.1336 -0.355418,3.43474 0.0053,5.55268 0.38152,2.23983 0.72758,3.29413 1.674286,5.10081 0.434937,0.83003 0.744781,1.5836 0.688543,1.67459 -0.05624,0.091 -1.641154,0.16545 -3.522036,0.16545 -3.2842119,0 -3.4607519,-0.0204 -4.4531489,-0.51495 z m 4.2368449,-20.84216 c -0.6957779,-1.24488 -0.8916959,-2.21921 -0.6771559,-3.36758 0.271888,-1.45535 0.9399979,-2.15293 3.3451009,-3.49266 0.272677,-0.1519 2.45724,-1.40587 4.854586,-2.78661 4.213667,-2.42684 4.397178,-2.51044 5.511004,-2.51044 1.208595,0 2.352774,0.43557 2.939911,1.11918 0.607519,0.70734 2.95378,4.87146 2.844468,5.04834 -0.06064,0.0981 -0.636976,0.1784 -1.280738,0.1784 -3.861495,0 -9.375445,2.6794 -12.016847,5.83937 l -0.754962,0.90317 h -2.122462 -2.122461 z"
       id="path3778"
       inkscape:connector-curvature="0" />
  </g>
</svg>
